<svg width="10" height="10" viewBox="0 0 10 10" fill="none" xmlns="http://www.w3.org/2000/svg">
<path d="M1.25 2.5C1.94036 2.5 2.5 1.94036 2.5 1.25C2.5 0.559644 1.94036 0 1.25 0C0.559644 0 0 0.559644 0 1.25C0 1.94036 0.559644 2.5 1.25 2.5Z" fill="white"/>
<path d="M1.25 6.25006C1.94036 6.25006 2.5 5.69042 2.5 5.00006C2.5 4.30971 1.94036 3.75006 1.25 3.75006C0.559644 3.75006 0 4.30971 0 5.00006C0 5.69042 0.559644 6.25006 1.25 6.25006Z" fill="white"/>
<path d="M1.25 10C1.94036 10 2.5 9.44036 2.5 8.75C2.5 8.05964 1.94036 7.5 1.25 7.5C0.559644 7.5 0 8.05964 0 8.75C0 9.44036 0.559644 10 1.25 10Z" fill="white"/>
<path d="M10 0.625061H3.75003V1.87506H10V0.625061Z" fill="white"/>
<path d="M10 4.375H3.75003V5.625H10V4.375Z" fill="white"/>
<path d="M10 8.125H3.75003V9.375H10V8.125Z" fill="white"/>
</svg>
